#!OML:ASF H:\Terrain\Patient Classification 1\Takeo\Monday\TakeoMonday.ASF
:FULLY-SPECIFIED
:DEGREES
1478
root 10.5991 17.2148 -2.8654 -28.785 -65.3267 25.0628
lowerback 5.52788 -5.41434 -1.23117
upperback 3.76063 -7.3417 0.20049
thorax 0.974868 -3.73314 1.21003
lowerneck -4.40548 17.7817 10.2539
upperneck -2.33927 23.5285 -14.042
head 2.84939 11.5111 -4.29756
rclavicle -5.96354e-016 1.11319e-014
rhumerus 35.3457 22.966 -80.8354
rradius 49.9964
rwrist 21.2418
rhand -30.7307 4.79434
rfingers 7.12502
rthumb -4.02308 -25.1474
lclavicle -5.96354e-016 1.11319e-014
lhumerus 48.1291 -10.3185 95.1406
lradius 44.4411
lwrist 72.415
lhand -18.6757 26.2481
lfingers 7.12502
lthumb 7.61817 56.0909
rfemur -10.3142 19.7061 7.38839
rtibia 40.1782
rfoot -21.7127 -2.78892
rtoes -15.4204
lfemur -6.45496 28.9336 -20.6544
ltibia 33.1581
lfoot -16.7232 24.8554
ltoes 6.31193
1479
root 10.6115 17.2134 -2.86261 -27.9292 -66.6455 24.1386
lowerback 5.85552 -5.41138 -0.260557
upperback 3.8286 -7.29973 0.426464
thorax 0.771667 -3.69831 0.943823
lowerneck -4.28379 17.8312 10.0426
upperneck -2.78167 23.5789 -14.3426
head 2.7201 11.5463 -4.38005
rclavicle -5.20816e-014 4.6118e-014
rhumerus 34.6838 22.1197 -80.8339
rradius 50.2432
rwrist 20.9307
rhand -30.7882 5.21068
rfingers 7.12502
rthumb -4.07857 -24.73
lclavicle -5.20816e-014 4.6118e-014
lhumerus 48.2586 -11.3941 95.3657
lradius 44.0551
lwrist 71.4292
lhand -18.8115 26.3451
lfingers 7.12502
lthumb 7.4871 56.1926
rfemur -10.7197 20.2655 8.30643
rtibia 40.1305
rfoot -21.4806 -2.42619
rtoes -14.7318
lfemur -6.50752 29.843 -19.5161
ltibia 33.406
lfoot -16.8788 24.7395
ltoes 6.36788
1480
root 10.621 17.2145 -2.86242 -28.1437 -67.7212 24.636
lowerback 5.97373 -5.50635 -0.11693
upperback 3.78578 -7.41964 0.598691
thorax 0.66969 -3.75774 1.06172
lowerneck -4.38708 17.955 10.0229
upperneck -2.78561 23.7624 -14.8589
head 2.82317 11.6234 -4.47983
rclavicle -1.05356e-014 -3.02153e-014
rhumerus 34.053 21.807 -81.1082
rradius 50.3676
rwrist 20.6147
rhand -30.9319 5.66389
rfingers 7.12502
rthumb -4.21734 -24.2741
lclavicle -1.05356e-014 -3.02153e-014
lhumerus 48.2776 -11.7968 95.7286
lradius 43.7915
lwrist 70.8354
lhand -19.3742 26.3752
lfingers 7.12502
lthumb 6.94394 56.2413
rfemur -11.4308 20.8017 8.42373
rtibia 40.0834
rfoot -21.2545 -2.11143
rtoes -15.1695
lfemur -6.78123 30.6027 -19.2517
ltibia 33.5491
lfoot -17.1536 24.7923
ltoes 6.63348
1481
root 10.6185 17.2184 -2.85381 -30.1365 -68.2347 26.9451
lowerback 5.94222 -5.69115 -0.917305
upperback 3.79642 -7.70646 0.591696
thorax 0.808206 -3.91706 1.49422
lowerneck -4.63795 18.1104 9.97743
upperneck -2.61614 23.9982 -15.3313
head 2.9994 11.7146 -4.53584
rclavicle 1.35174e-014 1.43125e-014
rhumerus 33.5228 21.8536 -81.5018
rradius 50.4082
rwrist 20.0807
rhand -31.5219 5.59302
rfingers 7.12502
rthumb -4.78706 -24.3329
lclavicle 1.35174e-014 1.43125e-014
lhumerus 48.3069 -11.9686 95.9006
lradius 43.6086
lwrist 70.482
lhand -20.205 25.5988
lfingers 7.12502
lthumb 6.14189 55.4898
rfemur -11.9135 21.1179 7.60197
rtibia 40.0691
rfoot -21.186 -1.71079
rtoes -15.3603
lfemur -6.85246 31.129 -19.891
ltibia 33.6096
lfoot -17.4937 24.9576
ltoes 6.47003
1482
root 10.6151 17.2213 -2.84072 -31.8517 -68.8314 28.7458
lowerback 6.08914 -5.79771 -1.3423
upperback 3.79131 -7.87214 0.586749
thorax 0.784358 -4.00841 1.74162
lowerneck -4.6733 18.2407 9.78529
upperneck -2.47006 24.2037 -15.4185
head 3.0621 11.8097 -4.50101
rclavicle 6.12257e-014 -2.06736e-014
rhumerus 32.8444 21.6721 -81.8974
rradius 50.5604
rwrist 19.7335
rhand -31.9341 4.9919
rfingers 7.12502
rthumb -5.18513 -24.9247
lclavicle 6.12257e-014 -2.06736e-014
lhumerus 48.2288 -12.3403 96.1332
lradius 43.2248
lwrist 69.6972
lhand -20.6035 25.193
lfingers 7.12502
lthumb 5.75717 55.0948
rfemur -12.2057 21.4216 7.09744
rtibia 40.1486
rfoot -21.146 -1.1061
rtoes -14.1418
lfemur -6.61529 31.6153 -20.1395
ltibia 33.4549
lfoot -17.6209 25.2289
ltoes 6.19974
1483
root 10.6228 17.2227 -2.83387 -32.0477 -69.9862 28.8764
lowerback 6.54466 -5.85919 -0.915725
upperback 3.66315 -7.93323 0.770453
thorax 0.372276 -4.02967 1.76326
lowerneck -4.22284 18.321 9.78849
upperneck -2.47833 24.3568 -15.5965
head 3.03242 11.905 -4.57009
rclavicle 1.05356e-014 -3.18055e-015
rhumerus 31.9826 21.4451 -82.4512
rradius 50.7043
rwrist 19.5398
rhand -32.0886 5.05759
rfingers 7.12502
rthumb -5.33429 -24.8553
lclavicle 1.05356e-014 -3.18055e-015
lhumerus 47.8908 -12.6805 96.1338
lradius 42.9836
lwrist 69.0151
lhand -20.5353 25.6887
lfingers 7.12502
lthumb 5.82303 55.5886
rfemur -12.6485 21.9114 7.56132
rtibia 40.365
rfoot -21.1049 -0.432542
rtoes -13.4169
lfemur -6.30661 32.2459 -19.4427
ltibia 33.1265
lfoot -17.48 25.5515
ltoes 6.37604
1484
root 10.6312 17.218 -2.83775 -34.244 -70.3584 31.4219
lowerback 6.78983 -5.98833 -1.76734
upperback 3.43584 -8.15127 0.782926
thorax 0.131748 -4.14504 2.28916
lowerneck -3.98844 18.3811 9.71373
upperneck -2.44537 24.4752 -15.8318
head 3.04392 11.9701 -4.62803
rclavicle 6.30147e-014 -4.77083e-015
rhumerus 31.346 21.6391 -82.5674
rradius 50.7856
rwrist 18.8746
rhand -32.4333 5.54832
rfingers 7.12502
rthumb -5.66708 -24.3559
lclavicle 6.30147e-014 -4.77083e-015
lhumerus 47.6368 -12.779 95.9899
lradius 42.8715
lwrist 68.6374
lhand -20.5111 25.977
lfingers 7.12502
lthumb 5.84637 55.8763
rfemur -13.4191 22.0905 6.71638
rtibia 40.6628
rfoot -21.2566 0.131789
rtoes -14.3213
lfemur -6.44913 32.6886 -20.1665
ltibia 32.9515
lfoot -17.4928 25.8634
ltoes 6.95347
1485
root 10.6292 17.2023 -2.85268 -38.0441 -69.8513 35.9613
lowerback 6.39031 -6.1376 -3.57374
upperback 3.35303 -8.44404 0.400142
thorax 0.486144 -4.31612 2.83809
lowerneck -4.19822 18.4607 9.85148
upperneck -2.41538 24.5801 -16.0998
head 3.15178 12.0032 -4.67636
rclavicle -4.21423e-014 1.90833e-014
rhumerus 30.9834 21.6328 -82.7622
rradius 50.9368
rwrist 18.3714
rhand -32.8573 5.55462
rfingers 7.12502
rthumb -6.07649 -24.3382
lclavicle -4.21423e-014 1.90833e-014
lhumerus 47.7985 -13.0379 95.7511
lradius 42.5232
lwrist 68.2057
lhand -20.7101 25.5082
lfingers 7.12502
lthumb 5.65424 55.4128
rfemur -14.3663 22.1046 4.63368
rtibia 40.9136
rfoot -21.4344 0.472045
rtoes -14.8077
lfemur -7.09585 32.9671 -22.2199
ltibia 33.0467
lfoot -17.6813 26.0588
ltoes 7.378
1486
root 10.6251 17.1931 -2.86411 -38.8089 -70.587 37.0265
lowerback 6.07843 -6.19198 -3.58639
upperback 3.45555 -8.50705 0.414695
thorax 0.773006 -4.3561 2.81459
lowerneck -4.07652 18.4905 10.1753
upperneck -2.80809 24.6016 -16.7783
head 3.15254 12.0156 -4.91338
rclavicle -1.47101e-014 -1.59028e-015
rhumerus 30.5337 21.2285 -83.4636
rradius 51.1384
rwrist 18.5426
rhand -32.9091 5.602
rfingers 7.12502
rthumb -6.12648 -24.2894
lclavicle -1.47101e-014 -1.59028e-015
lhumerus 48.0237 -13.4133 95.4919
lradius 42.1481
lwrist 67.5697
lhand -20.7662 25.3975
lfingers 7.12502
lthumb 5.60006 55.3035
rfemur -15.0761 22.8601 4.6273
rtibia 41.0567
rfoot -21.3739 0.563656
rtoes -14.2713
lfemur -7.44694 33.5692 -22.2011
ltibia 33.2135
lfoot -17.9468 26.0864
ltoes 7.69693
1487
root 10.6268 17.1972 -2.85163 -37.4383 -72.178 35.3258
lowerback 6.34369 -6.1808 -2.26391
upperback 3.56881 -8.4344 0.941675
thorax 0.626132 -4.30672 2.6631
lowerneck -3.67694 18.4114 9.87178
upperneck -3.19194 24.5035 -17.2745
head 2.99875 11.9939 -5.07961
rclavicle 2.5842e-014 -1.59028e-015
rhumerus 29.9723 21.004 -83.7464
rradius 51.3259
rwrist 18.6501
rhand -32.5447 5.77437
rfingers 7.12502
rthumb -5.77465 -24.1269
lclavicle 2.5842e-014 -1.59028e-015
lhumerus 48.0395 -13.6082 95.8643
lradius 41.7653
lwrist 66.7527
lhand -20.5592 25.8811
lfingers 7.12502
lthumb 5.79994 55.7817
rfemur -15.1084 23.7982 6.21514
rtibia 41.0336
rfoot -21.1079 0.705125
rtoes -13.348
lfemur -7.09391 34.1697 -20.4691
ltibia 33.4685
lfoot -18.5994 25.993
ltoes 8.7177
